<svg xmlns="http://www.w3.org/2000/svg" viewBox="0 0 640 480" role="img" aria-labelledby="title desc">
  <title id="title">メカニカルキーボード</title>
  <desc id="desc">コンパクトなキーボードのイラストです。</desc>
  <rect width="640" height="480" rx="28" fill="#eef6ff"/>
  <rect x="92" y="126" width="456" height="224" rx="28" fill="#111827"/>
  <g fill="#f8fafc">
    <rect x="126" y="164" width="52" height="38" rx="8"/>
    <rect x="190" y="164" width="52" height="38" rx="8"/>
    <rect x="254" y="164" width="52" height="38" rx="8"/>
    <rect x="318" y="164" width="52" height="38" rx="8"/>
    <rect x="382" y="164" width="52" height="38" rx="8"/>
    <rect x="446" y="164" width="68" height="38" rx="8"/>
    <rect x="126" y="214" width="68" height="38" rx="8"/>
    <rect x="206" y="214" width="52" height="38" rx="8"/>
    <rect x="270" y="214" width="52" height="38" rx="8"/>
    <rect x="334" y="214" width="52" height="38" rx="8"/>
    <rect x="398" y="214" width="116" height="38" rx="8"/>
    <rect x="126" y="264" width="100" height="38" rx="8"/>
    <rect x="238" y="264" width="164" height="38" rx="8"/>
    <rect x="414" y="264" width="100" height="38" rx="8"/>
  </g>
  <path d="M110 342h420" stroke="#2563eb" stroke-width="10" stroke-linecap="round"/>
</svg>
